<?xml version="1.0" encoding="utf-8"?>
<!-- Generator: Adobe Illustrator 21.1.0, SVG Export Plug-In . SVG Version: 6.00 Build 0)  -->
<svg version="1.1" id="Layer_1" xmlns="http://www.w3.org/2000/svg" xmlns:xlink="http://www.w3.org/1999/xlink" x="0px" y="0px"
	 viewBox="0 0 214.7 48.8" style="enable-background:new 0 0 214.7 48.8;" xml:space="preserve">
<style type="text/css">
	.st0{fill:#333333;}
	.st1{fill:#5A5A5A;}
	.st2{fill:#A5D79A;}
	.st3{fill:#00AED2;}
	.st4{fill:#64C9BD;}
	.st5{fill:#FFF176;}
</style>
<g>
	<g>
		<path class="st0" d="M72.3,21.9l-0.3-3.1h-5.2v8.4l3.1,0.3v2.9H60v-2.9l3.1-0.3V7.8L60,7.4V4.5h18.4v6.6h-2.9L75.2,8h-8.4v7.3h5.2
			l0.3-3.1h2.9v9.7H72.3z"/>
		<path class="st0" d="M88.7,27.2l3.1,0.3v2.9h-9.7v-2.9l3.1-0.3V16.4l-3.1-0.3v-2.9h6.6V27.2z M84.8,5.3H89v4.1h-4.1V5.3z"/>
		<path class="st0" d="M103.2,16.1l-2.7,0.3l3.1,9.3l3-9.3l-2.7-0.3v-2.9h9.3v2.9l-2.9,0.3l-5.5,14.5h-2.5l-5.6-14.5l-2.9-0.3v-2.9
			h9.3V16.1z"/>
		<path class="st0" d="M119.4,23.5c0.3,2.3,1.4,4.1,4.4,4.1c2.2,0,3.8-0.3,5.9-1.2v3.4c-2.2,1-4.3,1.2-5.9,1.2
			c-5.5,0-8.1-3.6-8.1-9.1s2.5-9.1,8.1-9.1c6,0,7.1,4.4,7.1,9.3v1.5H119.4z M119.3,20.4h7.7c0-2.3-0.5-4.4-3.3-4.4
			C120.7,16,119.6,18,119.3,20.4z"/>
		<path class="st0" d="M148.4,19.3h-2.9l-0.3-3.2c-0.7,0-1.4-0.1-2.2-0.1c-3.6,0-4.5,2.8-4.5,5.8c0,3,0.9,5.8,4.5,5.8
			c2.1,0,3.7-0.4,5.4-1v3.3c-1.6,0.8-3.8,1-5.4,1c-5.5,0-8.1-3.6-8.1-9.1s2.5-9.1,8.1-9.1c1.6,0,3.8,0.2,5.4,1V19.3z"/>
		<path class="st0" d="M164.4,29.5c-1.4,0.9-3.4,1.3-4.9,1.3c-4.6,0-6.4-2.9-6.4-5.9c0-2.7,1.6-5.1,6.7-5.6l3.8-0.3v-0.3
			c0-1.9-0.7-2.8-3.2-2.8c-3.1,0-5.2,0.8-6.3,1.1v-3.3c1.2-0.5,3.6-1.1,6.3-1.1c5.3,0,6.7,2.4,6.7,6v8.5l3.1,0.3v2.9h-5.5
			L164.4,29.5z M159.7,22.4c-2.2,0.2-3.1,1.2-3.1,2.6c0,1.3,0.6,2.6,2.9,2.6c1.5,0,3.1-0.5,4-1.1V22L159.7,22.4z"/>
		<path class="st0" d="M180.8,20c5,0.5,6.5,2,6.5,5.2c0,2.9-2.1,5.7-7.4,5.7c-1.7,0-4.5-0.4-5.8-1v-5.3h2.9l0.3,2.7
			c0.9,0.1,1.8,0.2,2.7,0.2c2.8,0,3.9-1,3.9-2.4c0-1.3-0.8-1.8-3.5-2.1c-5.1-0.4-6.5-2.2-6.5-5c0-2.8,2-5.5,7-5.5
			c1.6,0,3.8,0.2,5.6,1v5.2h-2.9l-0.3-2.7c-0.8-0.1-1.6-0.2-2.5-0.2c-2.7,0-3.6,0.8-3.6,2.2C177.3,19.4,178.1,19.8,180.8,20z"/>
		<path class="st0" d="M201.6,30.6c-0.5,0.2-1.5,0.2-1.8,0.2c-4.3,0-5.9-1.8-5.9-5.2v-9.3h-3.1v-2.9l3.1-0.3V8.5l3.5-0.4v5.1h5.1
			v3.3h-5.1v9.3c0,1.1,0.4,1.9,2.5,1.9c0.8,0,1.5-0.1,1.8-0.2V30.6z"/>
	</g>
</g>
<g>
	<g>
		<path class="st1" d="M66.1,47.2h-3v-7.5H66c1.4,0,2.3,0.8,2.3,2c0,0.8-0.5,1.4-1,1.6c0.6,0.2,1.1,0.8,1.1,1.7
			C68.4,46.4,67.5,47.2,66.1,47.2z M65.9,40.7h-1.7v2.1h1.7c0.7,0,1.2-0.4,1.2-1.1C67.1,41.1,66.6,40.7,65.9,40.7z M66,43.9h-1.8
			v2.3H66c0.8,0,1.2-0.5,1.2-1.1C67.3,44.3,66.8,43.9,66,43.9z"/>
		<path class="st1" d="M71.2,44.8c0,0.9,0.5,1.5,1.4,1.5c0.6,0,0.9-0.2,1.3-0.5l0.7,0.6c-0.5,0.5-1.1,0.8-2,0.8
			c-1.3,0-2.4-0.7-2.4-2.7c0-1.7,0.9-2.7,2.3-2.7c1.4,0,2.3,1,2.3,2.6v0.5H71.2z M73.5,43.3c-0.2-0.4-0.5-0.7-1-0.7
			s-0.9,0.3-1.1,0.7c-0.1,0.2-0.1,0.4-0.1,0.7h2.4C73.6,43.7,73.6,43.6,73.5,43.3z"/>
		<path class="st1" d="M78.2,47.2c-1,0-1.5-0.7-1.5-1.5v-2.9h-0.6v-0.8h0.6v-1.6h1.1v1.6h1v0.8h-1v2.9c0,0.4,0.2,0.6,0.6,0.6h0.4
			v0.9H78.2z"/>
		<path class="st1" d="M82.3,47.2c-1,0-1.5-0.7-1.5-1.5v-2.9h-0.6v-0.8h0.6v-1.6h1.1v1.6h1v0.8h-1v2.9c0,0.4,0.2,0.6,0.6,0.6h0.4
			v0.9H82.3z"/>
		<path class="st1" d="M85.6,44.8c0,0.9,0.5,1.5,1.4,1.5c0.6,0,0.9-0.2,1.3-0.5l0.7,0.6c-0.5,0.5-1.1,0.8-2,0.8
			c-1.3,0-2.4-0.7-2.4-2.7c0-1.7,0.9-2.7,2.3-2.7c1.4,0,2.3,1,2.3,2.6v0.5H85.6z M87.8,43.3c-0.2-0.4-0.5-0.7-1-0.7
			s-0.9,0.3-1.1,0.7c-0.1,0.2-0.1,0.4-0.1,0.7H88C88,43.7,88,43.6,87.8,43.3z"/>
		<path class="st1" d="M93.9,43.1c-0.2-0.2-0.4-0.4-0.8-0.4c-0.6,0-1.1,0.5-1.1,1.2v3.2H91v-5.3h1v0.6c0.3-0.4,0.8-0.6,1.4-0.6
			c0.5,0,0.9,0.1,1.3,0.5L93.9,43.1z"/>
		<path class="st1" d="M100.4,40.7V43h3.1v1h-3.1v3.2h-1.1v-7.5h4.8v1H100.4z"/>
		<path class="st1" d="M108.9,46.6c-0.3,0.4-0.9,0.6-1.6,0.6c-0.7,0-1.2-0.3-1.6-0.6c-0.5-0.5-0.6-1.2-0.6-2.1
			c0-0.9,0.1-1.6,0.6-2.1c0.3-0.4,0.9-0.6,1.6-0.6c0.7,0,1.2,0.3,1.6,0.6c0.5,0.5,0.6,1.2,0.6,2.1C109.5,45.4,109.4,46.1,108.9,46.6
			z M108.1,43c-0.2-0.2-0.5-0.3-0.8-0.3c-0.3,0-0.6,0.1-0.8,0.3c-0.3,0.3-0.4,0.9-0.4,1.5s0,1.1,0.4,1.5c0.2,0.2,0.5,0.3,0.8,0.3
			c0.3,0,0.6-0.1,0.8-0.3c0.3-0.3,0.4-0.9,0.4-1.5S108.4,43.4,108.1,43z"/>
		<path class="st1" d="M114.2,43.1c-0.2-0.2-0.4-0.4-0.8-0.4c-0.6,0-1.1,0.5-1.1,1.2v3.2h-1.1v-5.3h1v0.6c0.3-0.4,0.8-0.6,1.4-0.6
			c0.5,0,0.9,0.1,1.3,0.5L114.2,43.1z"/>
		<path class="st1" d="M117,44.8c0,0.9,0.5,1.5,1.4,1.5c0.6,0,0.9-0.2,1.3-0.5l0.7,0.6c-0.5,0.5-1.1,0.8-2,0.8
			c-1.3,0-2.4-0.7-2.4-2.7c0-1.7,0.9-2.7,2.3-2.7c1.4,0,2.3,1,2.3,2.6v0.5H117z M119.2,43.3c-0.2-0.4-0.5-0.7-1-0.7
			c-0.5,0-0.9,0.3-1.1,0.7c-0.1,0.2-0.1,0.4-0.1,0.7h2.4C119.4,43.7,119.3,43.6,119.2,43.3z"/>
		<path class="st1" d="M124.5,47.2c-1.2,0-2.4-0.7-2.4-2.7c0-2,1.2-2.7,2.4-2.7c0.7,0,1.2,0.2,1.7,0.7l-0.7,0.7
			c-0.3-0.4-0.6-0.5-1-0.5c-0.4,0-0.8,0.2-1,0.5c-0.2,0.3-0.3,0.7-0.3,1.3c0,0.6,0.1,1,0.3,1.3c0.2,0.3,0.6,0.5,1,0.5
			c0.4,0,0.7-0.1,1-0.5l0.7,0.7C125.7,47,125.2,47.2,124.5,47.2z"/>
		<path class="st1" d="M130.8,47.2v-0.5c-0.4,0.4-0.8,0.5-1.4,0.5s-1.1-0.2-1.4-0.5c-0.3-0.3-0.4-0.7-0.4-1.1c0-0.9,0.6-1.5,1.8-1.5
			h1.4v-0.4c0-0.7-0.3-1-1.2-1c-0.6,0-0.9,0.1-1.2,0.5l-0.7-0.7c0.5-0.6,1-0.8,1.9-0.8c1.5,0,2.2,0.6,2.2,1.8v3.6H130.8z
			 M130.8,44.8h-1.2c-0.6,0-1,0.3-1,0.8c0,0.5,0.3,0.8,1,0.8c0.4,0,0.7,0,1-0.3c0.2-0.2,0.2-0.4,0.2-0.8V44.8z"/>
		<path class="st1" d="M135.7,47.2c-0.9,0-1.6-0.1-2.2-0.8l0.7-0.7c0.4,0.4,1,0.6,1.5,0.6c0.7,0,1.2-0.2,1.2-0.7
			c0-0.4-0.2-0.6-0.7-0.6l-0.8-0.1c-1-0.1-1.6-0.5-1.6-1.5c0-1,0.9-1.6,2-1.6c0.8,0,1.5,0.2,2,0.6l-0.7,0.7
			c-0.3-0.3-0.8-0.4-1.3-0.4c-0.6,0-1,0.3-1,0.7c0,0.3,0.2,0.6,0.7,0.6l0.8,0.1c1,0.1,1.6,0.6,1.6,1.5C138,46.6,137,47.2,135.7,47.2
			z"/>
		<path class="st1" d="M141.4,47.2c-1,0-1.5-0.7-1.5-1.5v-2.9h-0.6v-0.8h0.6v-1.6h1.1v1.6h1v0.8h-1v2.9c0,0.4,0.2,0.6,0.6,0.6h0.4
			v0.9H141.4z"/>
		<path class="st1" d="M145.6,47.2c-0.9,0-1.6-0.1-2.2-0.8l0.7-0.7c0.4,0.4,1,0.6,1.5,0.6c0.7,0,1.2-0.2,1.2-0.7
			c0-0.4-0.2-0.6-0.7-0.6l-0.8-0.1c-1-0.1-1.6-0.5-1.6-1.5c0-1,0.9-1.6,2-1.6c0.8,0,1.5,0.2,2,0.6l-0.7,0.7
			c-0.3-0.3-0.8-0.4-1.3-0.4c-0.6,0-1,0.3-1,0.7c0,0.3,0.2,0.6,0.7,0.6l0.8,0.1c1,0.1,1.6,0.6,1.6,1.5
			C147.8,46.6,146.9,47.2,145.6,47.2z"/>
	</g>
</g>
<g>
	<polygon class="st2" points="30.5,24.1 29.1,12 26.8,1 0,9.8 14.8,17.4 	"/>
	<polygon class="st3" points="0,38.3 26.8,47.2 29.6,34.4 30.5,24.1 15.9,29.8 	"/>
	<polygon class="st4" points="0,38.3 30.5,24.1 0,9.8 	"/>
	<polygon class="st5" points="26.8,1 30.5,24.1 37.5,24.7 43.4,24.1 	"/>
	<polygon class="st4" points="30.5,24.1 43.4,24.1 26.8,47.2 	"/>
</g>
<g>
	<path class="st0" d="M202.9,4v5.4h-1.3V4H200V2.9h4.7V4H202.9z"/>
	<path class="st0" d="M211.2,9.4V5.6L210,8.1h-0.9l-1.3-2.5v3.8h-1.3V2.9h1.3l1.7,3.5l1.7-3.5h1.3v6.5H211.2z"/>
</g>
</svg>
