<?xml version="1.0" encoding="utf-8"?>
<!-- Generator: Adobe Illustrator 21.0.2, SVG Export Plug-In . SVG Version: 6.00 Build 0)  -->
<svg version="1.1" id="Layer_1" xmlns="http://www.w3.org/2000/svg" xmlns:xlink="http://www.w3.org/1999/xlink" x="0px" y="0px"
	 viewBox="0 0 156.4 129.4" style="enable-background:new 0 0 156.4 129.4;" xml:space="preserve">
<style type="text/css">
	.st0{fill:#333333;}
	.st1{fill:#5A5A5A;}
	.st2{fill:#A5D79A;}
	.st3{fill:#00AED2;}
	.st4{fill:#64C9BD;}
	.st5{fill:#FFF176;}
</style>
<g>
	<path class="st0" d="M12.8,101.4l-0.4-3.2H7.1v8.8l3.2,0.4v3H0v-3l3.2-0.4V86.7L0,86.3v-3h19.2v6.8h-3l-0.4-3.2H7.1v7.6h5.4
		l0.4-3.2h3v10.1L12.8,101.4z"/>
	<path class="st0" d="M29.9,106.9l3.2,0.4v3H23v-3l3.2-0.4V95.7L23,95.3v-3h6.9V106.9z M25.9,84.1h4.3v4.3h-4.3L25.9,84.1z"/>
	<path class="st0" d="M44.9,95.3l-2.8,0.3l3.2,9.7l3.1-9.7l-2.8-0.3v-3h9.7v3l-3,0.3l-5.8,15.1H44l-5.8-15.1l-3-0.4v-3h9.7V95.3z"/>
	<path class="st0" d="M61.8,103c0.3,2.4,1.5,4.3,4.5,4.3c2.3,0,4-0.3,6.2-1.3v3.5c-2.3,1-4.5,1.2-6.2,1.2c-5.8,0-8.4-3.8-8.4-9.5
		s2.6-9.5,8.4-9.5c6.3,0,7.3,4.6,7.3,9.7v1.5H61.8V103z M61.8,99.8h8c0-2.4-0.5-4.6-3.5-4.6C63.2,95.2,62,97.3,61.8,99.8z"/>
	<path class="st0" d="M91.9,98.7h-3l-0.4-3.4c-0.7,0-1.4-0.1-2.3-0.1c-3.7,0-4.6,2.9-4.6,6.1s0.9,6.1,4.6,6.1c2.2,0,3.9-0.4,5.7-1
		v3.4c-1.7,0.8-4,1-5.7,1c-5.8,0-8.4-3.8-8.4-9.5s2.6-9.5,8.4-9.5c1.7,0,4,0.3,5.7,1L91.9,98.7z"/>
	<path class="st0" d="M108.7,109.4c-1.5,0.9-3.6,1.4-5.2,1.4c-4.8,0-6.7-3.1-6.7-6.1c0-2.8,1.7-5.3,7-5.8l4-0.4v-0.4
		c0-1.9-0.7-2.9-3.3-2.9c-3.2,0-5.4,0.8-6.5,1.2V93c1.2-0.5,3.7-1.2,6.5-1.2c5.5,0,7,2.5,7,6.3v8.8l3.2,0.4v3H109L108.7,109.4z
		 M103.8,101.9c-2.3,0.2-3.2,1.3-3.2,2.7c0,1.4,0.6,2.7,3.1,2.7c1.5,0,3.2-0.5,4.2-1.1v-4.7L103.8,101.9z"/>
	<path class="st0" d="M125.6,99.4c5.3,0.5,6.8,2.1,6.8,5.4c0,3.1-2.2,5.9-7.7,5.9c-1.7,0-4.7-0.5-6.1-1v-5.5h3l0.3,2.8
		c0.9,0.1,1.8,0.2,2.8,0.2c2.9,0,4.1-1,4.1-2.5c0-1.4-0.8-1.9-3.6-2.2c-5.3-0.5-6.8-2.3-6.8-5.2c0-2.9,2.1-5.7,7.3-5.7
		c1.7,0,4,0.2,5.9,1V98h-3l-0.3-2.8c-0.8-0.1-1.7-0.2-2.6-0.2c-2.8,0-3.7,0.8-3.7,2.3C122,98.8,122.9,99.2,125.6,99.4z"/>
	<path class="st0" d="M147.3,110.5c-0.5,0.2-1.5,0.3-1.9,0.3c-4.5,0-6.2-1.9-6.2-5.4v-9.7H136v-3l3.2-0.4v-4.9l3.6-0.4v5.3h5.3v3.4
		h-5.3v9.7c0,1.1,0.5,2,2.6,2c0.9,0,1.6-0.1,1.9-0.2V110.5z"/>
</g>
<g>
	<g>
		<path class="st1" d="M6.4,129.3H3.2v-7.9h3c1.5,0,2.4,0.8,2.4,2.2c0,0.9-0.5,1.5-1.1,1.7c0.6,0.2,1.2,0.8,1.2,1.8
			C8.7,128.6,7.8,129.3,6.4,129.3z M6.1,122.5H4.4v2.3h1.8c0.8,0,1.3-0.4,1.3-1.1C7.4,122.9,6.9,122.5,6.1,122.5z M6.3,125.9H4.4
			v2.4h1.9c0.8,0,1.3-0.5,1.3-1.2C7.6,126.4,7.1,125.9,6.3,125.9z"/>
		<path class="st1" d="M11.8,126.9c0,1,0.5,1.6,1.4,1.6c0.6,0,1-0.2,1.4-0.6l0.7,0.7c-0.6,0.6-1.1,0.9-2.1,0.9
			c-1.4,0-2.5-0.7-2.5-2.9c0-1.8,0.9-2.9,2.4-2.9s2.4,1.1,2.4,2.7v0.5L11.8,126.9z M14.1,125.3c-0.2-0.4-0.6-0.7-1.1-0.7
			s-0.9,0.3-1.1,0.7c-0.1,0.3-0.1,0.4-0.1,0.8h2.5C14.3,125.7,14.2,125.6,14.1,125.3z"/>
		<path class="st1" d="M19.1,129.3c-1,0-1.5-0.8-1.5-1.6v-3.1H17v-0.9h0.6V122h1.1v1.7h1.1v0.9h-1.1v3c0,0.4,0.2,0.7,0.6,0.7h0.5v1
			H19.1z"/>
		<path class="st1" d="M23.4,129.3c-1,0-1.5-0.8-1.5-1.6v-3.1h-0.6v-0.9h0.6V122H23v1.7h1.1v0.9H23v3c0,0.4,0.2,0.7,0.6,0.7h0.5v1
			H23.4z"/>
		<path class="st1" d="M26.9,126.9c0,1,0.5,1.6,1.4,1.6c0.6,0,1-0.2,1.4-0.6l0.7,0.7c-0.6,0.6-1.1,0.9-2.1,0.9
			c-1.4,0-2.5-0.7-2.5-2.9c0-1.8,0.9-2.9,2.4-2.9s2.4,1.1,2.4,2.7v0.5L26.9,126.9z M29.3,125.3c-0.2-0.4-0.6-0.7-1.1-0.7
			s-0.9,0.3-1.1,0.7c-0.1,0.3-0.1,0.4-0.1,0.8h2.5C29.4,125.7,29.4,125.6,29.3,125.3z"/>
		<path class="st1" d="M35.7,125c-0.3-0.3-0.5-0.4-0.8-0.4c-0.6,0-1.1,0.5-1.1,1.3v3.4h-1.1v-5.6h1.1v0.6c0.3-0.4,0.9-0.7,1.5-0.7
			c0.5,0,0.9,0.1,1.3,0.5L35.7,125z"/>
		<path class="st1" d="M42.5,122.5v2.4h3.3v1.1h-3.3v3.3h-1.2v-7.9h5v1.1H42.5z"/>
		<path class="st1" d="M51.5,128.7c-0.4,0.4-0.9,0.7-1.7,0.7s-1.3-0.3-1.7-0.7c-0.5-0.6-0.7-1.3-0.7-2.2c0-0.9,0.1-1.6,0.7-2.2
			c0.4-0.4,0.9-0.7,1.7-0.7s1.3,0.3,1.7,0.7c0.5,0.6,0.7,1.3,0.7,2.2C52.2,127.5,52,128.2,51.5,128.7z M50.7,125
			c-0.2-0.2-0.5-0.3-0.8-0.3s-0.6,0.1-0.8,0.3c-0.3,0.3-0.4,0.9-0.4,1.5s0,1.2,0.4,1.5c0.2,0.2,0.5,0.3,0.8,0.3s0.6-0.1,0.8-0.3
			c0.3-0.3,0.4-0.9,0.4-1.5C51,125.9,51,125.3,50.7,125z"/>
		<path class="st1" d="M57.1,125c-0.3-0.3-0.5-0.4-0.8-0.4c-0.6,0-1.1,0.5-1.1,1.3v3.4h-1.1v-5.6h1.1v0.6c0.3-0.4,0.9-0.7,1.5-0.7
			c0.5,0,1,0.1,1.3,0.5L57.1,125z"/>
		<path class="st1" d="M60,126.9c0,1,0.5,1.6,1.4,1.6c0.6,0,1-0.2,1.4-0.6l0.7,0.7c-0.6,0.6-1.1,0.9-2.1,0.9c-1.4,0-2.5-0.7-2.5-2.9
			c0-1.8,0.9-2.9,2.4-2.9s2.4,1.1,2.4,2.7v0.5L60,126.9z M62.4,125.3c-0.2-0.4-0.6-0.7-1.1-0.7s-0.9,0.3-1.1,0.7
			c-0.1,0.3-0.1,0.4-0.1,0.8h2.5C62.5,125.7,62.5,125.6,62.4,125.3z"/>
		<path class="st1" d="M67.9,129.4c-1.3,0-2.5-0.8-2.5-2.9s1.2-2.9,2.5-2.9c0.8,0,1.3,0.2,1.8,0.8l-0.8,0.8
			c-0.4-0.4-0.6-0.5-1.1-0.5c-0.4,0-0.8,0.2-1,0.5c-0.2,0.3-0.3,0.7-0.3,1.4c0,0.7,0.1,1.1,0.3,1.4c0.2,0.3,0.6,0.5,1,0.5
			s0.7-0.1,1.1-0.5l0.8,0.7C69.2,129.2,68.7,129.4,67.9,129.4z"/>
		<path class="st1" d="M74.6,129.3v-0.5c-0.4,0.4-0.8,0.6-1.5,0.6s-1.2-0.2-1.5-0.5s-0.4-0.7-0.4-1.2c0-0.9,0.7-1.6,1.9-1.6h1.5
			v-0.4c0-0.7-0.4-1-1.2-1c-0.6,0-0.9,0.1-1.2,0.5l-0.7-0.7c0.5-0.6,1.1-0.8,2-0.8c1.5,0,2.3,0.7,2.3,1.9v3.7L74.6,129.3L74.6,129.3
			z M74.6,126.9h-1.3c-0.7,0-1,0.3-1,0.8c0,0.5,0.3,0.8,1,0.8c0.4,0,0.8,0,1-0.3c0.2-0.2,0.2-0.4,0.2-0.8v-0.5H74.6z"/>
		<path class="st1" d="M79.8,129.4c-0.9,0-1.7-0.2-2.4-0.8l0.7-0.7c0.5,0.5,1.1,0.6,1.6,0.6c0.7,0,1.2-0.2,1.2-0.8
			c0-0.4-0.2-0.6-0.8-0.7l-0.9-0.1c-1-0.1-1.7-0.6-1.7-1.5c0-1.1,0.9-1.7,2.1-1.7c0.8,0,1.6,0.2,2.1,0.6l-0.5,0.7
			c-0.4-0.3-0.9-0.4-1.4-0.4c-0.7,0-1,0.3-1,0.7c0,0.3,0.2,0.6,0.8,0.6l0.9,0.1c1,0.1,1.7,0.6,1.7,1.6
			C82.2,128.8,81.2,129.4,79.8,129.4z"/>
		<path class="st1" d="M85.8,129.3c-1,0-1.5-0.8-1.5-1.6v-3.1h-0.6v-0.9h0.5V122h1.1v1.7h1.1v0.9h-1.1v3c0,0.4,0.2,0.7,0.6,0.7h0.5
			v1H85.8z"/>
		<path class="st1" d="M90.2,129.4c-0.9,0-1.7-0.2-2.4-0.8l0.7-0.7c0.5,0.5,1.1,0.6,1.6,0.6c0.7,0,1.2-0.2,1.2-0.8
			c0-0.4-0.2-0.6-0.8-0.7l-0.9-0.1c-1-0.1-1.7-0.6-1.7-1.5c0-1.1,0.9-1.7,2.1-1.7c0.8,0,1.6,0.2,2.1,0.6l-0.7,0.7
			c-0.4-0.3-0.9-0.4-1.4-0.4c-0.7,0-1,0.3-1,0.7c0,0.3,0.2,0.6,0.8,0.6l0.9,0.1c1,0.1,1.7,0.6,1.7,1.6
			C92.6,128.8,91.6,129.4,90.2,129.4z"/>
	</g>
</g>
<g>
	<polygon class="st2" points="40.8,30.9 38.9,14.7 35.8,0 0,11.8 19.8,21.9 	"/>
	<polygon class="st3" points="0,49.9 35.8,61.7 39.7,44.6 40.8,30.9 21.2,38.5 	"/>
	<polygon class="st4" points="0,49.9 40.8,30.9 0,11.8 	"/>
	<polygon class="st5" points="35.8,0 40.8,30.9 50.1,31.7 58,30.9 	"/>
	<polygon class="st4" points="40.8,30.9 58,30.9 35.8,61.7 	"/>
</g>
<g>
	<path class="st0" d="M149.3,88.4c-1.7,0-3-1.3-3-3c0-1.7,1.3-3,3-3c1.7,0,3,1.3,3,3C152.3,87,151,88.4,149.3,88.4z M149.3,83
		c-1.3,0-2.3,1-2.3,2.3s1,2.3,2.3,2.3c1.3,0,2.3-1,2.3-2.3S150.6,83,149.3,83z M149.8,87l-0.6-1.2h-0.3V87h-0.7v-3.2h1.3
		c0.6,0,1.1,0.5,1.1,1c0,0.4-0.3,0.7-0.6,0.8l0.7,1.3H149.8z M149.4,84.3h-0.5v0.8h0.5c0.3,0,0.4-0.2,0.4-0.4S149.7,84.3,149.4,84.3
		z"/>
</g>
</svg>
