<?xml version="1.0" encoding="utf-8"?>
<!-- Generator: Adobe Illustrator 21.0.2, SVG Export Plug-In . SVG Version: 6.00 Build 0)  -->
<svg version="1.1" id="Layer_1" xmlns="http://www.w3.org/2000/svg" xmlns:xlink="http://www.w3.org/1999/xlink" x="0px" y="0px"
	 viewBox="0 0 219.1 62.3" style="enable-background:new 0 0 219.1 62.3;" xml:space="preserve">
<style type="text/css">
	.st0{fill:#333333;}
	.st1{fill:#5A5A5A;}
	.st2{fill:#A5D79A;}
	.st3{fill:#00AED2;}
	.st4{fill:#64C9BD;}
	.st5{fill:#FFF176;}
</style>
<g>
	<path class="st0" d="M78.7,27.2L78.3,24H73v8.8l3.2,0.4v3H65.9v-3l3.2-0.4V12.5l-3.2-0.4v-3h19.2v6.8h-3l-0.4-3.2H73v7.6h5.4
		l0.4-3.2h3v10.1L78.7,27.2z"/>
	<path class="st0" d="M95.8,32.7l3.2,0.4v3H88.9v-3l3.2-0.4V21.5l-3.2-0.4v-3h6.9V32.7z M91.8,9.9h4.3v4.3h-4.3V9.9z"/>
	<path class="st0" d="M110.8,21.1l-2.8,0.3l3.2,9.7l3.1-9.7l-2.8-0.3v-3h9.7v3l-3,0.3l-5.8,15.1h-2.5l-5.8-15.1l-3-0.4v-3h9.7V21.1z
		"/>
	<path class="st0" d="M127.7,28.8c0.3,2.4,1.5,4.3,4.5,4.3c2.3,0,4-0.3,6.2-1.3v3.5c-2.3,1-4.5,1.2-6.2,1.2c-5.8,0-8.4-3.8-8.4-9.5
		s2.6-9.5,8.4-9.5c6.3,0,7.3,4.6,7.3,9.7v1.5h-11.8V28.8z M127.7,25.6h8c0-2.4-0.5-4.6-3.5-4.6C129.1,21,127.9,23.1,127.7,25.6z"/>
	<path class="st0" d="M157.8,24.5h-3l-0.4-3.4c-0.7,0-1.4-0.1-2.3-0.1c-3.7,0-4.6,2.9-4.6,6.1s0.9,6.1,4.6,6.1c2.2,0,3.9-0.4,5.7-1
		v3.4c-1.7,0.8-4,1-5.7,1c-5.8,0-8.4-3.8-8.4-9.5s2.6-9.5,8.4-9.5c1.7,0,4,0.3,5.7,1L157.8,24.5z"/>
	<path class="st0" d="M174.6,35.2c-1.5,0.9-3.6,1.4-5.2,1.4c-4.8,0-6.7-3.1-6.7-6.1c0-2.8,1.7-5.3,7-5.8l4-0.4v-0.4
		c0-1.9-0.7-2.9-3.3-2.9c-3.2,0-5.4,0.8-6.5,1.2v-3.4c1.2-0.5,3.7-1.2,6.5-1.2c5.5,0,7,2.5,7,6.3v8.8l3.2,0.4v3h-5.7L174.6,35.2z
		 M169.7,27.7c-2.3,0.2-3.2,1.3-3.2,2.7c0,1.4,0.6,2.7,3.1,2.7c1.5,0,3.2-0.5,4.2-1.1v-4.7L169.7,27.7z"/>
	<path class="st0" d="M191.5,25.2c5.3,0.5,6.8,2.1,6.8,5.4c0,3.1-2.2,5.9-7.7,5.9c-1.7,0-4.7-0.5-6.1-1V30h3l0.3,2.8
		c0.9,0.1,1.8,0.2,2.8,0.2c2.9,0,4.1-1,4.1-2.5c0-1.4-0.8-1.9-3.6-2.2c-5.3-0.5-6.8-2.3-6.8-5.2c0-2.9,2.1-5.7,7.3-5.7
		c1.7,0,4,0.2,5.9,1v5.4h-3l-0.3-2.8c-0.8-0.1-1.7-0.2-2.6-0.2c-2.8,0-3.7,0.8-3.7,2.3C187.9,24.6,188.8,25,191.5,25.2z"/>
	<path class="st0" d="M213.2,36.3c-0.5,0.2-1.5,0.3-1.9,0.3c-4.5,0-6.2-1.9-6.2-5.4v-9.7h-3.2v-3l3.2-0.4v-4.9l3.6-0.4v5.3h5.3v3.4
		h-5.3v9.7c0,1.1,0.5,2,2.6,2c0.9,0,1.6-0.1,1.9-0.2V36.3z"/>
</g>
<g>
	<g>
		<path class="st1" d="M72.3,55.1h-3.2v-7.9h3c1.5,0,2.4,0.8,2.4,2.2c0,0.9-0.5,1.5-1.1,1.7c0.6,0.2,1.2,0.8,1.2,1.8
			C74.6,54.4,73.7,55.1,72.3,55.1z M72,48.3h-1.7v2.3h1.8c0.8,0,1.3-0.4,1.3-1.1C73.3,48.7,72.8,48.3,72,48.3z M72.2,51.7h-1.9v2.4
			h1.9c0.8,0,1.3-0.5,1.3-1.2C73.5,52.2,73,51.7,72.2,51.7z"/>
		<path class="st1" d="M77.7,52.7c0,1,0.5,1.6,1.4,1.6c0.6,0,1-0.2,1.4-0.6l0.7,0.7c-0.6,0.6-1.1,0.9-2.1,0.9
			c-1.4,0-2.5-0.7-2.5-2.9c0-1.8,0.9-2.9,2.4-2.9s2.4,1.1,2.4,2.7v0.5L77.7,52.7z M80,51.1c-0.2-0.4-0.6-0.7-1.1-0.7
			s-0.9,0.3-1.1,0.7c-0.1,0.3-0.1,0.4-0.1,0.8h2.5C80.2,51.5,80.1,51.4,80,51.1z"/>
		<path class="st1" d="M85,55.1c-1,0-1.5-0.8-1.5-1.6v-3.1h-0.6v-0.9h0.6v-1.7h1.1v1.7h1.1v0.9h-1.1v3c0,0.4,0.2,0.7,0.6,0.7h0.5v1
			H85z"/>
		<path class="st1" d="M89.3,55.1c-1,0-1.5-0.8-1.5-1.6v-3.1h-0.6v-0.9h0.6v-1.7h1.1v1.7H90v0.9h-1.1v3c0,0.4,0.2,0.7,0.6,0.7H90v1
			H89.3z"/>
		<path class="st1" d="M92.8,52.7c0,1,0.5,1.6,1.4,1.6c0.6,0,1-0.2,1.4-0.6l0.7,0.7c-0.6,0.6-1.1,0.9-2.1,0.9
			c-1.4,0-2.5-0.7-2.5-2.9c0-1.8,0.9-2.9,2.4-2.9s2.4,1.1,2.4,2.7v0.5L92.8,52.7z M95.2,51.1c-0.2-0.4-0.6-0.7-1.1-0.7
			s-0.9,0.3-1.1,0.7c-0.1,0.3-0.1,0.4-0.1,0.8h2.5C95.3,51.5,95.3,51.4,95.2,51.1z"/>
		<path class="st1" d="M101.6,50.8c-0.3-0.3-0.5-0.4-0.8-0.4c-0.6,0-1.1,0.5-1.1,1.3v3.4h-1.1v-5.6h1.1v0.6c0.3-0.4,0.9-0.7,1.5-0.7
			c0.5,0,0.9,0.1,1.3,0.5L101.6,50.8z"/>
		<path class="st1" d="M108.4,48.3v2.4h3.3v1.1h-3.3v3.3h-1.2v-7.9h5v1.1H108.4z"/>
		<path class="st1" d="M117.4,54.5c-0.4,0.4-0.9,0.7-1.7,0.7c-0.8,0-1.3-0.3-1.7-0.7c-0.5-0.6-0.7-1.3-0.7-2.2
			c0-0.9,0.1-1.6,0.7-2.2c0.4-0.4,0.9-0.7,1.7-0.7c0.8,0,1.3,0.3,1.7,0.7c0.5,0.6,0.7,1.3,0.7,2.2C118.1,53.3,117.9,54,117.4,54.5z
			 M116.6,50.8c-0.2-0.2-0.5-0.3-0.8-0.3c-0.3,0-0.6,0.1-0.8,0.3c-0.3,0.3-0.4,0.9-0.4,1.5s0,1.2,0.4,1.5c0.2,0.2,0.5,0.3,0.8,0.3
			c0.3,0,0.6-0.1,0.8-0.3c0.3-0.3,0.4-0.9,0.4-1.5C116.9,51.7,116.9,51.1,116.6,50.8z"/>
		<path class="st1" d="M123,50.8c-0.3-0.3-0.5-0.4-0.8-0.4c-0.6,0-1.1,0.5-1.1,1.3v3.4H120v-5.6h1.1v0.6c0.3-0.4,0.9-0.7,1.5-0.7
			c0.5,0,1,0.1,1.3,0.5L123,50.8z"/>
		<path class="st1" d="M125.9,52.7c0,1,0.5,1.6,1.4,1.6c0.6,0,1-0.2,1.4-0.6l0.7,0.7c-0.6,0.6-1.1,0.9-2.1,0.9
			c-1.4,0-2.5-0.7-2.5-2.9c0-1.8,0.9-2.9,2.4-2.9s2.4,1.1,2.4,2.7v0.5L125.9,52.7z M128.3,51.1c-0.2-0.4-0.6-0.7-1.1-0.7
			s-0.9,0.3-1.1,0.7c-0.1,0.3-0.1,0.4-0.1,0.8h2.5C128.4,51.5,128.4,51.4,128.3,51.1z"/>
		<path class="st1" d="M133.8,55.2c-1.3,0-2.5-0.8-2.5-2.9s1.2-2.9,2.5-2.9c0.8,0,1.3,0.2,1.8,0.8l-0.8,0.8
			c-0.4-0.4-0.6-0.5-1.1-0.5c-0.4,0-0.8,0.2-1,0.5c-0.2,0.3-0.3,0.7-0.3,1.4c0,0.7,0.1,1.1,0.3,1.4c0.2,0.3,0.6,0.5,1,0.5
			c0.4,0,0.7-0.1,1.1-0.5l0.8,0.7C135.1,55,134.6,55.2,133.8,55.2z"/>
		<path class="st1" d="M140.5,55.1v-0.5c-0.4,0.4-0.8,0.6-1.5,0.6s-1.2-0.2-1.5-0.5s-0.4-0.7-0.4-1.2c0-0.9,0.7-1.6,1.9-1.6h1.5
			v-0.4c0-0.7-0.4-1-1.2-1c-0.6,0-0.9,0.1-1.2,0.5l-0.7-0.7c0.5-0.6,1.1-0.8,2-0.8c1.5,0,2.3,0.7,2.3,1.9v3.7L140.5,55.1L140.5,55.1
			z M140.5,52.7h-1.3c-0.7,0-1,0.3-1,0.8c0,0.5,0.3,0.8,1,0.8c0.4,0,0.8,0,1-0.3c0.2-0.2,0.2-0.4,0.2-0.8v-0.5H140.5z"/>
		<path class="st1" d="M145.7,55.2c-0.9,0-1.7-0.2-2.4-0.8l0.7-0.7c0.5,0.5,1.1,0.6,1.6,0.6c0.7,0,1.2-0.2,1.2-0.8
			c0-0.4-0.2-0.6-0.8-0.7l-0.9-0.1c-1-0.1-1.7-0.6-1.7-1.5c0-1.1,0.9-1.7,2.1-1.7c0.8,0,1.6,0.2,2.1,0.6l-0.5,0.7
			c-0.4-0.3-0.9-0.4-1.4-0.4c-0.7,0-1,0.3-1,0.7c0,0.3,0.2,0.6,0.8,0.6l0.9,0.1c1,0.1,1.7,0.6,1.7,1.6
			C148.1,54.6,147.1,55.2,145.7,55.2z"/>
		<path class="st1" d="M151.7,55.1c-1,0-1.5-0.8-1.5-1.6v-3.1h-0.6v-0.9h0.5v-1.7h1.1v1.7h1.1v0.9h-1.1v3c0,0.4,0.2,0.7,0.6,0.7h0.5
			v1H151.7z"/>
		<path class="st1" d="M156.1,55.2c-0.9,0-1.7-0.2-2.4-0.8l0.7-0.7c0.5,0.5,1.1,0.6,1.6,0.6c0.7,0,1.2-0.2,1.2-0.8
			c0-0.4-0.2-0.6-0.8-0.7l-0.9-0.1c-1-0.1-1.7-0.6-1.7-1.5c0-1.1,0.9-1.7,2.1-1.7c0.8,0,1.6,0.2,2.1,0.6l-0.7,0.7
			c-0.4-0.3-0.9-0.4-1.4-0.4c-0.7,0-1,0.3-1,0.7c0,0.3,0.2,0.6,0.8,0.6l0.9,0.1c1,0.1,1.7,0.6,1.7,1.6
			C158.5,54.6,157.5,55.2,156.1,55.2z"/>
	</g>
</g>
<g>
	<polygon class="st2" points="40.8,30.9 38.9,14.7 35.8,0 0,11.8 19.8,21.9 	"/>
	<polygon class="st3" points="0,49.9 35.8,61.7 39.7,44.6 40.8,30.9 21.2,38.5 	"/>
	<polygon class="st4" points="0,49.9 40.8,30.9 0,11.8 	"/>
	<polygon class="st5" points="35.8,0 40.8,30.9 50.1,31.7 58,30.9 	"/>
	<polygon class="st4" points="40.8,30.9 58,30.9 35.8,61.7 	"/>
</g>
<g>
	<path class="st0" d="M215.2,14.1c-1.7,0-3-1.3-3-3c0-1.7,1.3-3,3-3c1.7,0,3,1.3,3,3C218.2,12.8,216.9,14.1,215.2,14.1z M215.2,8.8
		c-1.3,0-2.3,1-2.3,2.3s1,2.3,2.3,2.3c1.3,0,2.3-1,2.3-2.3S216.5,8.8,215.2,8.8z M215.7,12.7l-0.6-1.2h-0.3v1.2h-0.7V9.5h1.3
		c0.6,0,1.1,0.5,1.1,1c0,0.4-0.3,0.7-0.6,0.8l0.7,1.3H215.7z M215.3,10.1h-0.5V11h0.5c0.3,0,0.4-0.2,0.4-0.4S215.6,10.1,215.3,10.1z
		"/>
</g>
</svg>
