<?xml version="1.0" encoding="utf-8"?>
<!-- Generator: Adobe Illustrator 21.1.0, SVG Export Plug-In . SVG Version: 6.00 Build 0)  -->
<svg version="1.1" id="Layer_1" xmlns="http://www.w3.org/2000/svg" xmlns:xlink="http://www.w3.org/1999/xlink" x="0px" y="0px"
	 viewBox="0 0 156.4 129.4" style="enable-background:new 0 0 156.4 129.4;" xml:space="preserve">
<style type="text/css">
	.st0{fill:#333333;}
	.st1{fill:#5A5A5A;}
	.st2{fill:#A5D79A;}
	.st3{fill:#00AED2;}
	.st4{fill:#64C9BD;}
	.st5{fill:#FFF176;}
</style>
<g>
	<g>
		<path class="st0" d="M12.8,101.4l-0.4-3.2H7.1v8.8l3.2,0.4v3H0v-3l3.2-0.4V86.7L0,86.3v-3h19.2v6.8h-3l-0.4-3.2H7.1v7.6h5.4
			l0.4-3.2h3v10.1C15.9,101.4,12.8,101.4,12.8,101.4z"/>
		<path class="st0" d="M29.9,106.9l3.2,0.4v3H23v-3l3.2-0.4V95.7L23,95.3v-3h6.9V106.9z M25.9,84.1h4.3v4.3h-4.3
			C25.9,88.4,25.9,84.1,25.9,84.1z"/>
		<path class="st0" d="M44.9,95.3l-2.8,0.3l3.2,9.7l3.1-9.7l-2.8-0.3v-3h9.7v3l-3,0.3l-5.8,15.1H44l-5.8-15.1l-3-0.4v-3h9.7V95.3z"
			/>
		<path class="st0" d="M61.8,103c0.3,2.4,1.5,4.3,4.5,4.3c2.3,0,4-0.3,6.2-1.3v3.5c-2.3,1-4.5,1.2-6.2,1.2c-5.8,0-8.4-3.8-8.4-9.5
			s2.6-9.5,8.4-9.5c6.3,0,7.3,4.6,7.3,9.7v1.5H61.8V103z M61.8,99.8h8c0-2.4-0.5-4.6-3.5-4.6C63.2,95.2,62,97.3,61.8,99.8z"/>
		<path class="st0" d="M91.9,98.7h-3l-0.4-3.4c-0.7,0-1.4-0.1-2.3-0.1c-3.7,0-4.6,2.9-4.6,6.1s0.9,6.1,4.6,6.1c2.2,0,3.9-0.4,5.7-1
			v3.4c-1.7,0.8-4,1-5.7,1c-5.8,0-8.4-3.8-8.4-9.5s2.6-9.5,8.4-9.5c1.7,0,4,0.3,5.7,1C91.9,92.8,91.9,98.7,91.9,98.7z"/>
		<path class="st0" d="M108.7,109.4c-1.5,0.9-3.6,1.4-5.2,1.4c-4.8,0-6.7-3.1-6.7-6.1c0-2.8,1.7-5.3,7-5.8l4-0.4v-0.4
			c0-1.9-0.7-2.9-3.3-2.9c-3.2,0-5.4,0.8-6.5,1.2V93c1.2-0.5,3.7-1.2,6.5-1.2c5.5,0,7,2.5,7,6.3v8.8l3.2,0.4v3H109L108.7,109.4z
			 M103.8,101.9c-2.3,0.2-3.2,1.3-3.2,2.7c0,1.4,0.6,2.7,3.1,2.7c1.5,0,3.2-0.5,4.2-1.1v-4.7L103.8,101.9z"/>
		<path class="st0" d="M125.6,99.4c5.3,0.5,6.8,2.1,6.8,5.4c0,3.1-2.2,5.9-7.7,5.9c-1.7,0-4.7-0.5-6.1-1v-5.5h3l0.3,2.8
			c0.9,0.1,1.8,0.2,2.8,0.2c2.9,0,4.1-1,4.1-2.5c0-1.4-0.8-1.9-3.6-2.2c-5.3-0.5-6.8-2.3-6.8-5.2c0-2.9,2.1-5.7,7.3-5.7
			c1.7,0,4,0.2,5.9,1V98h-3l-0.3-2.8c-0.8-0.1-1.7-0.2-2.6-0.2c-2.8,0-3.7,0.8-3.7,2.3C122,98.8,122.9,99.2,125.6,99.4z"/>
		<path class="st0" d="M147.3,110.5c-0.5,0.2-1.5,0.3-1.9,0.3c-4.5,0-6.2-1.9-6.2-5.4v-9.7H136v-3l3.2-0.4v-4.9l3.6-0.4v5.3h5.3v3.4
			h-5.3v9.7c0,1.1,0.5,2,2.6,2c0.9,0,1.6-0.1,1.9-0.2V110.5z"/>
	</g>
	<g>
		<g>
			<path class="st1" d="M3.2,129.3H0v-7.9h3c1.5,0,2.4,0.8,2.4,2.2c0,0.9-0.5,1.5-1.1,1.7c0.6,0.2,1.2,0.8,1.2,1.8
				C5.5,128.6,4.6,129.3,3.2,129.3z M2.9,122.5H1.2v2.3H3c0.8,0,1.3-0.4,1.3-1.1C4.2,122.9,3.7,122.5,2.9,122.5z M3.1,125.9H1.2v2.4
				h1.9c0.8,0,1.3-0.5,1.3-1.2C4.4,126.4,3.9,125.9,3.1,125.9z"/>
			<path class="st1" d="M8.6,126.9c0,1,0.5,1.6,1.4,1.6c0.6,0,1-0.2,1.4-0.6l0.7,0.7c-0.6,0.6-1.1,0.9-2.1,0.9
				c-1.4,0-2.5-0.7-2.5-2.9c0-1.8,0.9-2.9,2.4-2.9s2.4,1.1,2.4,2.7v0.5C12.3,126.9,8.6,126.9,8.6,126.9z M10.9,125.3
				c-0.2-0.4-0.6-0.7-1.1-0.7s-0.9,0.3-1.1,0.7c-0.1,0.3-0.1,0.4-0.1,0.8h2.5C11.1,125.7,11,125.6,10.9,125.3z"/>
			<path class="st1" d="M15.9,129.3c-1,0-1.5-0.8-1.5-1.6v-3.1h-0.6v-0.9h0.6V122h1.1v1.7h1.1v0.9h-1.1v3c0,0.4,0.2,0.7,0.6,0.7h0.5
				v1H15.9z"/>
			<path class="st1" d="M20.2,129.3c-1,0-1.5-0.8-1.5-1.6v-3.1h-0.6v-0.9h0.6V122h1.1v1.7h1.1v0.9h-1.1v3c0,0.4,0.2,0.7,0.6,0.7h0.5
				v1H20.2z"/>
			<path class="st1" d="M23.7,126.9c0,1,0.5,1.6,1.4,1.6c0.6,0,1-0.2,1.4-0.6l0.7,0.7c-0.6,0.6-1.1,0.9-2.1,0.9
				c-1.4,0-2.5-0.7-2.5-2.9c0-1.8,0.9-2.9,2.4-2.9s2.4,1.1,2.4,2.7v0.5C27.4,126.9,23.7,126.9,23.7,126.9z M26.1,125.3
				c-0.2-0.4-0.6-0.7-1.1-0.7s-0.9,0.3-1.1,0.7c-0.1,0.3-0.1,0.4-0.1,0.8h2.5C26.2,125.7,26.2,125.6,26.1,125.3z"/>
			<path class="st1" d="M32.5,125c-0.3-0.3-0.5-0.4-0.8-0.4c-0.6,0-1.1,0.5-1.1,1.3v3.4h-1.1v-5.6h1.1v0.6c0.3-0.4,0.9-0.7,1.5-0.7
				c0.5,0,0.9,0.1,1.3,0.5L32.5,125z"/>
			<path class="st1" d="M39.3,122.5v2.4h3.3v1.1h-3.3v3.3h-1.2v-7.9h5v1.1H39.3z"/>
			<path class="st1" d="M48.3,128.7c-0.4,0.4-0.9,0.7-1.7,0.7s-1.3-0.3-1.7-0.7c-0.5-0.6-0.7-1.3-0.7-2.2c0-0.9,0.1-1.6,0.7-2.2
				c0.4-0.4,0.9-0.7,1.7-0.7s1.3,0.3,1.7,0.7c0.5,0.6,0.7,1.3,0.7,2.2C49,127.5,48.8,128.2,48.3,128.7z M47.5,125
				c-0.2-0.2-0.5-0.3-0.8-0.3s-0.6,0.1-0.8,0.3c-0.3,0.3-0.4,0.9-0.4,1.5s0,1.2,0.4,1.5c0.2,0.2,0.5,0.3,0.8,0.3s0.6-0.1,0.8-0.3
				c0.3-0.3,0.4-0.9,0.4-1.5C47.8,125.9,47.8,125.3,47.5,125z"/>
			<path class="st1" d="M53.9,125c-0.3-0.3-0.5-0.4-0.8-0.4c-0.6,0-1.1,0.5-1.1,1.3v3.4h-1.1v-5.6H52v0.6c0.3-0.4,0.9-0.7,1.5-0.7
				c0.5,0,1,0.1,1.3,0.5L53.9,125z"/>
			<path class="st1" d="M56.8,126.9c0,1,0.5,1.6,1.4,1.6c0.6,0,1-0.2,1.4-0.6l0.7,0.7c-0.6,0.6-1.1,0.9-2.1,0.9
				c-1.4,0-2.5-0.7-2.5-2.9c0-1.8,0.9-2.9,2.4-2.9s2.4,1.1,2.4,2.7v0.5C60.5,126.9,56.8,126.9,56.8,126.9z M59.2,125.3
				c-0.2-0.4-0.6-0.7-1.1-0.7s-0.9,0.3-1.1,0.7c-0.1,0.3-0.1,0.4-0.1,0.8h2.5C59.3,125.7,59.3,125.6,59.2,125.3z"/>
			<path class="st1" d="M64.7,129.4c-1.3,0-2.5-0.8-2.5-2.9s1.2-2.9,2.5-2.9c0.8,0,1.3,0.2,1.8,0.8l-0.8,0.8
				c-0.4-0.4-0.6-0.5-1.1-0.5c-0.4,0-0.8,0.2-1,0.5s-0.3,0.7-0.3,1.4c0,0.7,0.1,1.1,0.3,1.4s0.6,0.5,1,0.5s0.7-0.1,1.1-0.5l0.8,0.7
				C66,129.2,65.5,129.4,64.7,129.4z"/>
			<path class="st1" d="M71.4,129.3v-0.5c-0.4,0.4-0.8,0.6-1.5,0.6s-1.2-0.2-1.5-0.5s-0.4-0.7-0.4-1.2c0-0.9,0.7-1.6,1.9-1.6h1.5
				v-0.4c0-0.7-0.4-1-1.2-1c-0.6,0-0.9,0.1-1.2,0.5l-0.7-0.7c0.5-0.6,1.1-0.8,2-0.8c1.5,0,2.3,0.7,2.3,1.9v3.7L71.4,129.3
				L71.4,129.3z M71.4,126.9h-1.3c-0.7,0-1,0.3-1,0.8c0,0.5,0.3,0.8,1,0.8c0.4,0,0.8,0,1-0.3c0.2-0.2,0.2-0.4,0.2-0.8v-0.5H71.4z"/>
			<path class="st1" d="M76.6,129.4c-0.9,0-1.7-0.2-2.4-0.8l0.7-0.7c0.5,0.5,1.1,0.6,1.6,0.6c0.7,0,1.2-0.2,1.2-0.8
				c0-0.4-0.2-0.6-0.8-0.7l-0.9-0.1c-1-0.1-1.7-0.6-1.7-1.5c0-1.1,0.9-1.7,2.1-1.7c0.8,0,1.6,0.2,2.1,0.6L78,125
				c-0.4-0.3-0.9-0.4-1.4-0.4c-0.7,0-1,0.3-1,0.7c0,0.3,0.2,0.6,0.8,0.6l0.9,0.1c1,0.1,1.7,0.6,1.7,1.6
				C79,128.8,78,129.4,76.6,129.4z"/>
			<path class="st1" d="M82.6,129.3c-1,0-1.5-0.8-1.5-1.6v-3.1h-0.6v-0.9H81V122h1.1v1.7h1.1v0.9h-1.1v3c0,0.4,0.2,0.7,0.6,0.7h0.5
				v1H82.6z"/>
			<path class="st1" d="M87,129.4c-0.9,0-1.7-0.2-2.4-0.8l0.7-0.7c0.5,0.5,1.1,0.6,1.6,0.6c0.7,0,1.2-0.2,1.2-0.8
				c0-0.4-0.2-0.6-0.8-0.7l-0.9-0.1c-1-0.1-1.7-0.6-1.7-1.5c0-1.1,0.9-1.7,2.1-1.7c0.8,0,1.6,0.2,2.1,0.6l-0.7,0.7
				c-0.4-0.3-0.9-0.4-1.4-0.4c-0.7,0-1,0.3-1,0.7c0,0.3,0.2,0.6,0.8,0.6l0.9,0.1c1,0.1,1.7,0.6,1.7,1.6
				C89.4,128.8,88.4,129.4,87,129.4z"/>
		</g>
	</g>
	<g>
		<polygon class="st2" points="40.8,30.9 38.9,14.7 35.8,0 0,11.8 19.8,21.9 		"/>
		<polygon class="st3" points="0,49.9 35.8,61.7 39.7,44.6 40.8,30.9 21.2,38.5 		"/>
		<polygon class="st4" points="0,49.9 40.8,30.9 0,11.8 		"/>
		<polygon class="st5" points="35.8,0 40.8,30.9 50.1,31.7 58,30.9 		"/>
		<polygon class="st4" points="40.8,30.9 58,30.9 35.8,61.7 		"/>
	</g>
</g>
<g>
	<path class="st0" d="M148.6,83v4.4h-1V83h-1.4v-0.9h3.8V83H148.6z"/>
	<path class="st0" d="M155.3,87.4v-3.1l-1,2h-0.7l-1-2v3.1h-1v-5.3h1L154,85l1.4-2.9h1v5.3H155.3z"/>
</g>
</svg>
